<?xml version="1.0" encoding="UTF-8" standalone="no"?>
<!-- Created with Inkscape (http://www.inkscape.org/) -->

<svg
   xmlns:dc="http://purl.org/dc/elements/1.1/"
   xmlns:cc="http://creativecommons.org/ns#"
   xmlns:rdf="http://www.w3.org/1999/02/22-rdf-syntax-ns#"
   xmlns:svg="http://www.w3.org/2000/svg"
   xmlns="http://www.w3.org/2000/svg"
   xmlns:sodipodi="http://sodipodi.sourceforge.net/DTD/sodipodi-0.dtd"
   xmlns:inkscape="http://www.inkscape.org/namespaces/inkscape"
   width="1280"
   height="600"
   viewBox="0 0 338.66666 158.75"
   version="1.1"
   id="svg8"
   inkscape:version="0.92.2 (5c3e80d, 2017-08-06)"
   sodipodi:docname="hex-bg.svg">
  <defs
     id="defs2" />
  <sodipodi:namedview
     id="base"
     pagecolor="#ffffff"
     bordercolor="#666666"
     borderopacity="1.0"
     inkscape:pageopacity="0.0"
     inkscape:pageshadow="2"
     inkscape:zoom="0.98994949"
     inkscape:cx="591.65266"
     inkscape:cy="318.17191"
     inkscape:document-units="mm"
     inkscape:current-layer="layer1"
     showgrid="false"
     units="px"
     inkscape:object-paths="true"
     inkscape:window-width="2560"
     inkscape:window-height="1417"
     inkscape:window-x="-8"
     inkscape:window-y="-8"
     inkscape:window-maximized="1" />
  <metadata
     id="metadata5">
    <rdf:RDF>
      <cc:Work
         rdf:about="">
        <dc:format>image/svg+xml</dc:format>
        <dc:type
           rdf:resource="http://purl.org/dc/dcmitype/StillImage" />
        <dc:title></dc:title>
      </cc:Work>
    </rdf:RDF>
  </metadata>
  <g
     inkscape:label="Layer 1"
     inkscape:groupmode="layer"
     id="layer1"
     transform="translate(0,-138.24998)">
    <g
       id="g1081"
       style="opacity:0.53378378">
      <path
         style="fill:#00a7e6;fill-opacity:0.10606061;fill-rule:nonzero;stroke:#ffffff;stroke-width:0.26458332;stroke-miterlimit:4;stroke-dasharray:none;stroke-opacity:1"
         d="m 28.855089,273.3212 c -0.764461,0 -1.484266,0.19118 -2.115324,0.52715 l -0.04411,0.0256 -2.813174,1.60959 -9.665158,5.53514 -0.01351,0.008 c -0.615255,0.37756 -1.148295,0.90633 -1.53626,1.57374 -0.38872,0.6661 -0.586375,1.39125 -0.611583,2.11194 v 0.0937 l -0.05376,14.26215 v 0.0937 c 0.0188,0.7205 0.210584,1.44719 0.594221,2.11799 0.381569,0.66836 0.910728,1.202 1.521655,1.58257 l 12.484942,7.27542 c 0.634824,0.3433 1.358616,0.53995 2.129654,0.54259 h 0.0182 c 0.763706,0 1.482425,-0.19131 2.11367,-0.52578 l 0.967122,-0.55417 11.57074,-6.62364 0.0011,-0.001 c 0.614687,-0.37681 1.147452,-0.90616 1.535985,-1.57319 0.388152,-0.6663 0.58502,-1.39061 0.6091,-2.11111 l 0.0237,-5.9487 0.032,-8.50287 c -0.0196,-0.72087 -0.211145,-1.4472 -0.594219,-2.11745 v -2.8e-4 c -0.382859,-0.66914 -0.91145,-1.20189 -1.521621,-1.58398 l -11.43018,-6.6592 -1.006258,-0.58616 -0.04852,-0.0281 c -0.633505,-0.34331 -1.358041,-0.54079 -2.129653,-0.54343 z"
         id="path872"
         inkscape:connector-curvature="0"
         sodipodi:nodetypes="cccccccccccccccscccccccccccccccc" />
      <path
         style="fill:#00a7e6;fill-opacity:0.10606061;fill-rule:nonzero;stroke:#ffffff;stroke-width:0.26458332;stroke-miterlimit:4;stroke-dasharray:none;stroke-opacity:1"
         d="m 62.721761,273.3212 c -0.76446,0 -1.48427,0.19118 -2.11533,0.52715 l -0.0441,0.0256 -2.81317,1.60959 -9.665154,5.53514 -0.0135,0.008 c -0.615259,0.37756 -1.148299,0.90633 -1.536264,1.57374 -0.38872,0.6661 -0.586375,1.39125 -0.611583,2.11194 v 0.0937 l -0.05376,14.26215 v 0.0937 c 0.0188,0.7205 0.210584,1.44719 0.594221,2.11799 0.381569,0.66836 0.910728,1.202 1.521656,1.58257 l 12.484944,7.27542 c 0.63482,0.3433 1.35861,0.53995 2.12965,0.54259 h 0.0182 c 0.76371,0 1.48243,-0.19131 2.11367,-0.52578 l 0.96713,-0.55417 11.57074,-6.62364 0.001,-0.001 c 0.61469,-0.37681 1.14745,-0.90616 1.53599,-1.57319 0.38815,-0.6663 0.58502,-1.39061 0.6091,-2.11111 l 0.0237,-5.9487 0.032,-8.50287 c -0.0196,-0.72087 -0.21115,-1.4472 -0.59422,-2.11745 v -2.8e-4 c -0.38286,-0.66914 -0.91145,-1.20189 -1.52162,-1.58398 l -11.43019,-6.6592 -1.00626,-0.58616 -0.0485,-0.0281 c -0.6335,-0.34331 -1.35804,-0.54079 -2.12965,-0.54343 z"
         id="path892"
         inkscape:connector-curvature="0"
         sodipodi:nodetypes="cccccccccccccccscccccccccccccccc" />
      <path
         sodipodi:nodetypes="cccccccccccccccscccccccccccccccc"
         inkscape:connector-curvature="0"
         id="path894"
         d="m 96.588451,273.3212 c -0.76447,0 -1.48427,0.19118 -2.11533,0.52715 l -0.0441,0.0256 -2.81318,1.60959 -9.66516,5.53514 -0.0135,0.008 c -0.61525,0.37756 -1.14829,0.90633 -1.53626,1.57374 -0.38872,0.6661 -0.58637,1.39125 -0.61158,2.11194 v 0.0937 l -0.0538,14.26215 v 0.0937 c 0.0188,0.7205 0.21058,1.44719 0.59422,2.11799 0.38157,0.66836 0.91073,1.202 1.52165,1.58257 l 12.48495,7.27542 c 0.63483,0.3433 1.35862,0.53995 2.12966,0.54259 h 0.0182 c 0.7637,0 1.48242,-0.19131 2.11367,-0.52578 l 0.96712,-0.55417 11.570749,-6.62364 10e-4,-0.001 c 0.61469,-0.37681 1.14745,-0.90616 1.53598,-1.57319 0.38816,-0.6663 0.58502,-1.39061 0.6091,-2.11111 l 0.0237,-5.9487 0.032,-8.50287 c -0.0196,-0.72087 -0.21114,-1.4472 -0.59421,-2.11745 v -2.8e-4 c -0.38286,-0.66914 -0.91145,-1.20189 -1.52163,-1.58398 l -11.430179,-6.6592 -1.00626,-0.58616 -0.0485,-0.0281 c -0.63351,-0.34331 -1.35804,-0.54079 -2.12966,-0.54343 z"
         style="fill:#00a7e6;fill-opacity:0.10606061;fill-rule:nonzero;stroke:#ffffff;stroke-width:0.26458332;stroke-miterlimit:4;stroke-dasharray:none;stroke-opacity:1" />
      <path
         sodipodi:nodetypes="cccccccccccccccscccccccccccccccc"
         inkscape:connector-curvature="0"
         id="path898"
         d="m 164.32179,273.3212 c -0.76446,0 -1.48427,0.19118 -2.11533,0.52715 l -0.0441,0.0256 -2.81317,1.60959 -9.66517,5.53514 -0.0135,0.008 c -0.61525,0.37756 -1.14829,0.90633 -1.53626,1.57374 -0.38872,0.6661 -0.58637,1.39125 -0.61158,2.11194 v 0.0937 l -0.0538,14.26215 v 0.0937 c 0.0188,0.7205 0.21058,1.44719 0.59422,2.11799 0.38157,0.66836 0.91073,1.202 1.52165,1.58257 l 12.48496,7.27542 c 0.63482,0.3433 1.35861,0.53995 2.12965,0.54259 h 0.0182 c 0.76371,0 1.48242,-0.19131 2.11367,-0.52578 l 0.96712,-0.55417 11.57075,-6.62364 0.001,-0.001 c 0.61469,-0.37681 1.14745,-0.90616 1.53599,-1.57319 0.38815,-0.6663 0.58502,-1.39061 0.6091,-2.11111 l 0.0237,-5.9487 0.032,-8.50287 c -0.0196,-0.72087 -0.21115,-1.4472 -0.59422,-2.11745 v -2.8e-4 c -0.38286,-0.66914 -0.91145,-1.20189 -1.52162,-1.58398 l -11.43019,-6.6592 -1.00626,-0.58616 -0.0485,-0.0281 c -0.63351,-0.34331 -1.35804,-0.54079 -2.12965,-0.54343 z"
         style="fill:#00a7e6;fill-opacity:0.10606061;fill-rule:nonzero;stroke:#ffffff;stroke-width:0.26458332;stroke-miterlimit:4;stroke-dasharray:none;stroke-opacity:1" />
      <path
         sodipodi:nodetypes="cccccccccccccccscccccccccccccccc"
         inkscape:connector-curvature="0"
         id="path900"
         d="m 198.18848,273.3212 c -0.76446,0 -1.48427,0.19118 -2.11533,0.52715 l -0.0441,0.0256 -2.81317,1.60959 -9.66516,5.53514 -0.0135,0.008 c -0.61526,0.37756 -1.14831,0.90633 -1.53627,1.57374 -0.38872,0.6661 -0.58638,1.39125 -0.61158,2.11194 v 0.0937 l -0.0538,14.26215 v 0.0937 c 0.0188,0.7205 0.21058,1.44719 0.59422,2.11799 0.38157,0.66836 0.91073,1.202 1.52166,1.58257 l 12.48495,7.27542 c 0.63482,0.3433 1.35861,0.53995 2.12965,0.54259 h 0.0182 c 0.76371,0 1.48243,-0.19131 2.11367,-0.52578 l 0.96713,-0.55417 11.57075,-6.62364 10e-4,-0.001 c 0.61469,-0.37681 1.14745,-0.90616 1.53599,-1.57319 0.38815,-0.6663 0.58502,-1.39061 0.6091,-2.11111 l 0.0237,-5.9487 0.032,-8.50287 c -0.0196,-0.72087 -0.21115,-1.4472 -0.59422,-2.11745 v -2.8e-4 c -0.38286,-0.66914 -0.91145,-1.20189 -1.52162,-1.58398 l -11.4302,-6.6592 -1.00626,-0.58616 -0.0485,-0.0281 c -0.6335,-0.34331 -1.35804,-0.54079 -2.12965,-0.54343 z"
         style="fill:#00a7e6;fill-opacity:0.10606061;fill-rule:nonzero;stroke:#ffffff;stroke-width:0.26458332;stroke-miterlimit:4;stroke-dasharray:none;stroke-opacity:1" />
      <path
         style="fill:#00a7e6;fill-opacity:0.10606061;fill-rule:nonzero;stroke:#ffffff;stroke-width:0.26458332;stroke-miterlimit:4;stroke-dasharray:none;stroke-opacity:1"
         d="m 232.05519,273.3212 c -0.76447,0 -1.48427,0.19118 -2.11534,0.52715 l -0.0441,0.0256 -2.81318,1.60959 -9.66516,5.53514 -0.0135,0.008 c -0.61525,0.37756 -1.14829,0.90633 -1.53626,1.57374 -0.38872,0.6661 -0.58637,1.39125 -0.61158,2.11194 v 0.0937 l -0.0538,14.26215 v 0.0937 c 0.0188,0.7205 0.21058,1.44719 0.59422,2.11799 0.38157,0.66836 0.91073,1.202 1.52165,1.58257 l 12.48495,7.27542 c 0.63484,0.3433 1.35863,0.53995 2.12967,0.54259 h 0.0182 c 0.7637,0 1.48242,-0.19131 2.11367,-0.52578 l 0.96712,-0.55417 11.57075,-6.62364 0.001,-0.001 c 0.61469,-0.37681 1.14745,-0.90616 1.53598,-1.57319 0.38816,-0.6663 0.58502,-1.39061 0.6091,-2.11111 l 0.0237,-5.9487 0.032,-8.50287 c -0.0196,-0.72087 -0.21114,-1.4472 -0.59421,-2.11745 v -2.8e-4 c -0.38286,-0.66914 -0.91145,-1.20189 -1.52163,-1.58398 l -11.43018,-6.6592 -1.00626,-0.58616 -0.0485,-0.0281 c -0.63351,-0.34331 -1.35804,-0.54079 -2.12966,-0.54343 z"
         id="path902"
         inkscape:connector-curvature="0"
         sodipodi:nodetypes="cccccccccccccccscccccccccccccccc" />
      <path
         style="fill:#00a7e6;fill-opacity:0.10606061;fill-rule:nonzero;stroke:#ffffff;stroke-width:0.26458332;stroke-miterlimit:4;stroke-dasharray:none;stroke-opacity:1"
         d="m 265.92186,273.3212 c -0.76446,0 -1.48427,0.19118 -2.11533,0.52715 l -0.0441,0.0256 -2.81317,1.60959 -9.66517,5.53514 -0.0135,0.008 c -0.61525,0.37756 -1.14829,0.90633 -1.53626,1.57374 -0.38872,0.6661 -0.58637,1.39125 -0.61158,2.11194 v 0.0937 l -0.0538,14.26215 v 0.0937 c 0.0188,0.7205 0.21058,1.44719 0.59422,2.11799 0.38157,0.66836 0.91073,1.202 1.52165,1.58257 l 12.48496,7.27542 c 0.63482,0.3433 1.35861,0.53995 2.12965,0.54259 h 0.0182 c 0.76371,0 1.48242,-0.19131 2.11367,-0.52578 l 0.96712,-0.55417 11.57075,-6.62364 10e-4,-0.001 c 0.61469,-0.37681 1.14745,-0.90616 1.53599,-1.57319 0.38815,-0.6663 0.58502,-1.39061 0.6091,-2.11111 l 0.0237,-5.9487 0.032,-8.50287 c -0.0196,-0.72087 -0.21115,-1.4472 -0.59422,-2.11745 v -2.8e-4 c -0.38286,-0.66914 -0.91145,-1.20189 -1.52162,-1.58398 l -11.43019,-6.6592 -1.00626,-0.58616 -0.0485,-0.0281 c -0.63351,-0.34331 -1.35804,-0.54079 -2.12965,-0.54343 z"
         id="path915"
         inkscape:connector-curvature="0"
         sodipodi:nodetypes="cccccccccccccccscccccccccccccccc" />
      <path
         style="fill:#00a7e6;fill-opacity:0.10606061;fill-rule:nonzero;stroke:#ffffff;stroke-width:0.26458332;stroke-miterlimit:4;stroke-dasharray:none;stroke-opacity:1"
         d="m 299.78855,273.3212 c -0.76446,0 -1.48427,0.19118 -2.11533,0.52715 l -0.0441,0.0256 -2.81317,1.60959 -9.66516,5.53514 -0.0135,0.008 c -0.61526,0.37756 -1.14831,0.90633 -1.53627,1.57374 -0.38872,0.6661 -0.58638,1.39125 -0.61158,2.11194 v 0.0937 l -0.0538,14.26215 v 0.0937 c 0.0188,0.7205 0.21058,1.44719 0.59422,2.11799 0.38157,0.66836 0.91073,1.202 1.52166,1.58257 l 12.48495,7.27542 c 0.63482,0.3433 1.35861,0.53995 2.12965,0.54259 h 0.0182 c 0.76371,0 1.48243,-0.19131 2.11367,-0.52578 l 0.96713,-0.55417 11.57075,-6.62364 10e-4,-0.001 c 0.61469,-0.37681 1.14745,-0.90616 1.53599,-1.57319 0.38815,-0.6663 0.58502,-1.39061 0.6091,-2.11111 l 0.0237,-5.9487 0.032,-8.50287 c -0.0196,-0.72087 -0.21115,-1.4472 -0.59422,-2.11745 v -2.8e-4 c -0.38286,-0.66914 -0.91145,-1.20189 -1.52162,-1.58398 l -11.4302,-6.6592 -1.00626,-0.58616 -0.0485,-0.0281 c -0.6335,-0.34331 -1.35804,-0.54079 -2.12965,-0.54343 z"
         id="path917"
         inkscape:connector-curvature="0"
         sodipodi:nodetypes="cccccccccccccccscccccccccccccccc" />
      <path
         style="fill:#00a7e6;fill-opacity:0.07450981;fill-rule:nonzero;stroke:#ffffff;stroke-width:0.26458332;stroke-miterlimit:4;stroke-dasharray:none;stroke-opacity:1"
         d="m 11.921756,244.21703 c -0.764461,0 -1.484267,0.19118 -2.1153248,0.52715 l -0.04411,0.0256 -2.8131741,1.60959 -9.6651573,5.53514 -0.01351,0.008 c -0.615255,0.37756 -1.1482947,0.90633 -1.5362597,1.57374 -0.38872,0.6661 -0.586375,1.39125 -0.611583,2.11194 v 0.0937 l -0.05376,14.26215 v 0.0937 c 0.0188,0.7205 0.210584,1.44719 0.594221,2.11799 0.381569,0.66836 0.9107277,1.202 1.5216547,1.58257 l 12.4849414,7.27542 c 0.6348238,0.3433 1.3586158,0.53995 2.1296548,0.54259 h 0.0182 c 0.763706,0 1.482425,-0.19131 2.11367,-0.52578 l 0.967122,-0.55417 11.57074,-6.62364 0.0011,-0.001 c 0.614688,-0.37681 1.147453,-0.90616 1.535986,-1.57319 0.388152,-0.6663 0.585018,-1.39061 0.609102,-2.11111 l 0.02371,-5.9487 0.03198,-8.50287 c -0.01957,-0.72087 -0.211147,-1.4472 -0.594221,-2.11745 v -2.8e-4 c -0.382859,-0.66914 -0.91145,-1.20189 -1.521622,-1.58398 l -11.43018,-6.6592 -1.006258,-0.58616 -0.04852,-0.0281 c -0.633505,-0.34331 -1.358041,-0.54079 -2.129653,-0.54343 z"
         id="path940"
         inkscape:connector-curvature="0"
         sodipodi:nodetypes="cccccccccccccccscccccccccccccccc" />
      <path
         sodipodi:nodetypes="cccccccccccccccscccccccccccccccc"
         inkscape:connector-curvature="0"
         id="path944"
         d="m 79.655096,244.21703 c -0.76446,0 -1.48427,0.19118 -2.11533,0.52715 l -0.0441,0.0256 -2.81317,1.60959 -9.665154,5.53514 -0.0135,0.008 c -0.615259,0.37756 -1.148299,0.90633 -1.536264,1.57374 -0.38872,0.6661 -0.586375,1.39125 -0.611583,2.11194 v 0.0937 l -0.05376,14.26215 v 0.0937 c 0.0188,0.7205 0.210584,1.44719 0.594221,2.11799 0.381569,0.66836 0.910728,1.202 1.521656,1.58257 l 12.484944,7.27542 c 0.63482,0.3433 1.35861,0.53995 2.12965,0.54259 h 0.0182 c 0.76371,0 1.48243,-0.19131 2.11367,-0.52578 l 0.96713,-0.55417 11.57074,-6.62364 0.001,-0.001 c 0.61469,-0.37681 1.14745,-0.90616 1.53599,-1.57319 0.38815,-0.6663 0.58502,-1.39061 0.6091,-2.11111 l 0.0237,-5.9487 0.032,-8.50287 c -0.0196,-0.72087 -0.21115,-1.4472 -0.59422,-2.11745 v -2.8e-4 c -0.38286,-0.66914 -0.91145,-1.20189 -1.52162,-1.58398 l -11.43019,-6.6592 -1.00626,-0.58616 -0.0485,-0.0281 c -0.6335,-0.34331 -1.35804,-0.54079 -2.12965,-0.54343 z"
         style="fill:#00a1e4;fill-opacity:0.07450981;fill-rule:nonzero;stroke:#ffffff;stroke-width:0.26458332;stroke-miterlimit:4;stroke-dasharray:none;stroke-opacity:1" />
      <path
         style="fill:#00a1e4;fill-opacity:0.07450981;fill-rule:nonzero;stroke:#ffffff;stroke-width:0.26458332;stroke-miterlimit:4;stroke-dasharray:none;stroke-opacity:1"
         d="m 113.5218,244.21703 c -0.76447,0 -1.48427,0.19118 -2.11534,0.52715 l -0.0441,0.0256 -2.81318,1.60959 -9.665164,5.53514 -0.0135,0.008 c -0.61525,0.37756 -1.14829,0.90633 -1.53626,1.57374 -0.38872,0.6661 -0.58637,1.39125 -0.61158,2.11194 v 0.0937 l -0.0538,14.26215 v 0.0937 c 0.0188,0.7205 0.21058,1.44719 0.59422,2.11799 0.38157,0.66836 0.91073,1.202 1.52165,1.58257 l 12.484954,7.27542 c 0.63484,0.3433 1.35863,0.53995 2.12967,0.54259 h 0.0182 c 0.7637,0 1.48242,-0.19131 2.11367,-0.52578 l 0.96712,-0.55417 11.57075,-6.62364 0.001,-0.001 c 0.61469,-0.37681 1.14745,-0.90616 1.53598,-1.57319 0.38816,-0.6663 0.58502,-1.39061 0.6091,-2.11111 l 0.0237,-5.9487 0.032,-8.50287 c -0.0196,-0.72087 -0.21114,-1.4472 -0.59421,-2.11745 v -2.8e-4 c -0.38286,-0.66914 -0.91145,-1.20189 -1.52163,-1.58398 l -11.43018,-6.6592 -1.00626,-0.58616 -0.0485,-0.0281 c -0.63351,-0.34331 -1.35804,-0.54079 -2.12966,-0.54343 z"
         id="path946"
         inkscape:connector-curvature="0"
         sodipodi:nodetypes="cccccccccccccccscccccccccccccccc" />
      <path
         sodipodi:nodetypes="cccccccccccccccscccccccccccccccc"
         inkscape:connector-curvature="0"
         id="path948"
         d="m 147.38845,244.21703 c -0.76446,0 -1.48427,0.19118 -2.11533,0.52715 l -0.0441,0.0256 -2.81317,1.60959 -9.66517,5.53514 -0.0135,0.008 c -0.61525,0.37756 -1.14829,0.90633 -1.53625,1.57374 -0.38872,0.6661 -0.58638,1.39125 -0.61159,2.11194 v 0.0937 l -0.0538,14.26215 v 0.0937 c 0.0188,0.7205 0.21059,1.44719 0.59422,2.11799 0.38157,0.66836 0.91073,1.202 1.52166,1.58257 l 12.48495,7.27542 c 0.63482,0.3433 1.35861,0.53995 2.12965,0.54259 h 0.0182 c 0.76371,0 1.48243,-0.19131 2.11367,-0.52578 l 0.96713,-0.55417 11.57074,-6.62364 0.001,-0.001 c 0.61469,-0.37681 1.14746,-0.90616 1.53599,-1.57319 0.38815,-0.6663 0.58502,-1.39061 0.6091,-2.11111 l 0.0237,-5.9487 0.032,-8.50287 c -0.0196,-0.72087 -0.21114,-1.4472 -0.59422,-2.11745 v -2.8e-4 c -0.38286,-0.66914 -0.91145,-1.20189 -1.52162,-1.58398 l -11.43019,-6.6592 -1.00626,-0.58616 -0.0485,-0.0281 c -0.6335,-0.34331 -1.35804,-0.54079 -2.12965,-0.54343 z"
         style="fill:#00a7e6;fill-opacity:0.10606061;fill-rule:nonzero;stroke:#ffffff;stroke-width:0.26458332;stroke-miterlimit:4;stroke-dasharray:none;stroke-opacity:1" />
      <path
         style="fill:#00a1e4;fill-opacity:0.07450981;fill-rule:nonzero;stroke:#ffffff;stroke-width:0.26458332;stroke-miterlimit:4;stroke-dasharray:none;stroke-opacity:1"
         d="m 181.25514,244.21703 c -0.76446,0 -1.48427,0.19118 -2.11533,0.52715 l -0.0441,0.0256 -2.81317,1.60959 -9.66517,5.53514 -0.0135,0.008 c -0.61525,0.37756 -1.14829,0.90633 -1.53626,1.57374 -0.38872,0.6661 -0.58637,1.39125 -0.61158,2.11194 v 0.0937 l -0.0538,14.26215 v 0.0937 c 0.0188,0.7205 0.21058,1.44719 0.59422,2.11799 0.38157,0.66836 0.91073,1.202 1.52165,1.58257 l 12.48496,7.27542 c 0.63482,0.3433 1.35861,0.53995 2.12965,0.54259 h 0.0182 c 0.76371,0 1.48242,-0.19131 2.11367,-0.52578 l 0.96712,-0.55417 11.57075,-6.62364 0.001,-0.001 c 0.61469,-0.37681 1.14745,-0.90616 1.53599,-1.57319 0.38815,-0.6663 0.58502,-1.39061 0.6091,-2.11111 l 0.0237,-5.9487 0.032,-8.50287 c -0.0196,-0.72087 -0.21115,-1.4472 -0.59422,-2.11745 v -2.8e-4 c -0.38286,-0.66914 -0.91145,-1.20189 -1.52162,-1.58398 l -11.43019,-6.6592 -1.00626,-0.58616 -0.0485,-0.0281 c -0.63351,-0.34331 -1.35804,-0.54079 -2.12965,-0.54343 z"
         id="path950"
         inkscape:connector-curvature="0"
         sodipodi:nodetypes="cccccccccccccccscccccccccccccccc" />
      <path
         style="fill:#00a7e6;fill-opacity:0.10606061;fill-rule:nonzero;stroke:#ffffff;stroke-width:0.26458332;stroke-miterlimit:4;stroke-dasharray:none;stroke-opacity:1"
         d="m 215.12183,244.21703 c -0.76446,0 -1.48427,0.19118 -2.11533,0.52715 l -0.0441,0.0256 -2.81317,1.60959 -9.66516,5.53514 -0.0135,0.008 c -0.61526,0.37756 -1.14831,0.90633 -1.53627,1.57374 -0.38872,0.6661 -0.58638,1.39125 -0.61158,2.11194 v 0.0937 l -0.0538,14.26215 v 0.0937 c 0.0188,0.7205 0.21058,1.44719 0.59422,2.11799 0.38157,0.66836 0.91073,1.202 1.52166,1.58257 l 12.48495,7.27542 c 0.63482,0.3433 1.35861,0.53995 2.12965,0.54259 h 0.0182 c 0.76371,0 1.48243,-0.19131 2.11367,-0.52578 l 0.96713,-0.55417 11.57075,-6.62364 0.001,-0.001 c 0.61469,-0.37681 1.14745,-0.90616 1.53599,-1.57319 0.38815,-0.6663 0.58502,-1.39061 0.6091,-2.11111 l 0.0237,-5.9487 0.032,-8.50287 c -0.0196,-0.72087 -0.21115,-1.4472 -0.59422,-2.11745 v -2.8e-4 c -0.38286,-0.66914 -0.91145,-1.20189 -1.52162,-1.58398 l -11.4302,-6.6592 -1.00626,-0.58616 -0.0485,-0.0281 c -0.6335,-0.34331 -1.35804,-0.54079 -2.12965,-0.54343 z"
         id="path952"
         inkscape:connector-curvature="0"
         sodipodi:nodetypes="cccccccccccccccscccccccccccccccc" />
      <path
         sodipodi:nodetypes="cccccccccccccccscccccccccccccccc"
         inkscape:connector-curvature="0"
         id="path956"
         d="m 282.85521,244.21703 c -0.76446,0 -1.48427,0.19118 -2.11533,0.52715 l -0.0441,0.0256 -2.81317,1.60959 -9.66517,5.53514 -0.0135,0.008 c -0.61525,0.37756 -1.14829,0.90633 -1.53626,1.57374 -0.38872,0.6661 -0.58637,1.39125 -0.61158,2.11194 v 0.0937 l -0.0538,14.26215 v 0.0937 c 0.0188,0.7205 0.21058,1.44719 0.59422,2.11799 0.38157,0.66836 0.91073,1.202 1.52165,1.58257 l 12.48496,7.27542 c 0.63482,0.3433 1.35861,0.53995 2.12965,0.54259 h 0.0182 c 0.76371,0 1.48242,-0.19131 2.11367,-0.52578 l 0.96712,-0.55417 11.57075,-6.62364 0.001,-0.001 c 0.61469,-0.37681 1.14745,-0.90616 1.53599,-1.57319 0.38815,-0.6663 0.58502,-1.39061 0.6091,-2.11111 l 0.0237,-5.9487 0.032,-8.50287 c -0.0196,-0.72087 -0.21115,-1.4472 -0.59422,-2.11745 v -2.8e-4 c -0.38286,-0.66914 -0.91145,-1.20189 -1.52162,-1.58398 l -11.43019,-6.6592 -1.00626,-0.58616 -0.0485,-0.0281 c -0.63351,-0.34331 -1.35804,-0.54079 -2.12965,-0.54343 z"
         style="fill:#00a1e4;fill-opacity:0.07450981;fill-rule:nonzero;stroke:#ffffff;stroke-width:0.26458332;stroke-miterlimit:4;stroke-dasharray:none;stroke-opacity:1" />
      <path
         sodipodi:nodetypes="cccccccccccccccscccccccccccccccc"
         inkscape:connector-curvature="0"
         id="path958"
         d="m 316.7219,244.21703 c -0.76446,0 -1.48427,0.19118 -2.11533,0.52715 l -0.0441,0.0256 -2.81317,1.60959 -9.66516,5.53514 -0.0135,0.008 c -0.61526,0.37756 -1.14831,0.90633 -1.53627,1.57374 -0.38872,0.6661 -0.58638,1.39125 -0.61158,2.11194 v 0.0937 l -0.0538,14.26215 v 0.0937 c 0.0188,0.7205 0.21058,1.44719 0.59422,2.11799 0.38157,0.66836 0.91073,1.202 1.52166,1.58257 l 12.48495,7.27542 c 0.63482,0.3433 1.35861,0.53995 2.12965,0.54259 h 0.0182 c 0.76371,0 1.48243,-0.19131 2.11367,-0.52578 l 0.96713,-0.55417 11.57075,-6.62364 10e-4,-0.001 c 0.61469,-0.37681 1.14745,-0.90616 1.53599,-1.57319 0.38815,-0.6663 0.58502,-1.39061 0.6091,-2.11111 l 0.0237,-5.9487 0.032,-8.50287 c -0.0196,-0.72087 -0.21115,-1.4472 -0.59422,-2.11745 v -2.8e-4 c -0.38286,-0.66914 -0.91145,-1.20189 -1.52162,-1.58398 l -11.4302,-6.6592 -1.00626,-0.58616 -0.0485,-0.0281 c -0.6335,-0.34331 -1.35804,-0.54079 -2.12965,-0.54343 z"
         style="fill:#00a7e6;fill-opacity:0.10606061;fill-rule:nonzero;stroke:#ffffff;stroke-width:0.26458332;stroke-miterlimit:4;stroke-dasharray:none;stroke-opacity:1" />
      <path
         style="fill:#00a1e4;fill-opacity:0.07450981;fill-rule:nonzero;stroke:#ffffff;stroke-width:0.26458332;stroke-miterlimit:4;stroke-dasharray:none;stroke-opacity:1"
         d="m 350.58861,244.21703 c -0.76447,0 -1.48427,0.19118 -2.11534,0.52715 l -0.0441,0.0256 -2.81318,1.60959 -9.66516,5.53514 -0.0135,0.008 c -0.61525,0.37756 -1.14829,0.90633 -1.53626,1.57374 -0.38872,0.6661 -0.58637,1.39125 -0.61158,2.11194 v 0.0937 l -0.0538,14.26215 v 0.0937 c 0.0188,0.7205 0.21058,1.44719 0.59422,2.11799 0.38157,0.66836 0.91073,1.202 1.52165,1.58257 l 12.48495,7.27542 c 0.63484,0.3433 1.35863,0.53995 2.12967,0.54259 h 0.0182 c 0.7637,0 1.48242,-0.19131 2.11367,-0.52578 l 0.96712,-0.55417 11.57075,-6.62364 10e-4,-0.001 c 0.61469,-0.37681 1.14745,-0.90616 1.53598,-1.57319 0.38816,-0.6663 0.58502,-1.39061 0.6091,-2.11111 l 0.0237,-5.9487 0.032,-8.50287 c -0.0196,-0.72087 -0.21114,-1.4472 -0.59421,-2.11745 v -2.8e-4 c -0.38286,-0.66914 -0.91145,-1.20189 -1.52163,-1.58398 l -11.43018,-6.6592 -1.00626,-0.58616 -0.0485,-0.0281 c -0.63351,-0.34331 -1.35804,-0.54079 -2.12966,-0.54343 z"
         id="path960"
         inkscape:connector-curvature="0"
         sodipodi:nodetypes="cccccccccccccccscccccccccccccccc" />
      <path
         style="fill:#00a1e4;fill-opacity:0.07450981;fill-rule:nonzero;stroke:#ffffff;stroke-width:0.26458332;stroke-miterlimit:4;stroke-dasharray:none;stroke-opacity:1"
         d="m -5.0115783,215.11283 c -0.764461,0 -1.484266,0.19118 -2.115324,0.52715 l -0.04411,0.0256 -2.813174,1.60959 -9.6651577,5.53514 -0.01351,0.008 c -0.615255,0.37756 -1.148295,0.90633 -1.53626,1.57374 -0.38872,0.6661 -0.586375,1.39125 -0.611583,2.11194 v 0.0937 l -0.05376,14.26215 v 0.0937 c 0.0188,0.7205 0.210584,1.44719 0.594221,2.11799 0.381569,0.66836 0.910728,1.202 1.521655,1.58257 l 12.4849417,7.27542 c 0.634824,0.3433 1.358616,0.53995 2.129654,0.54259 h 0.0182 c 0.763706,0 1.482425,-0.19131 2.11367,-0.52578 l 0.967122,-0.55417 11.57074,-6.62364 0.0011,-0.001 c 0.6146873,-0.37681 1.1474523,-0.90616 1.5359853,-1.57319 0.388152,-0.6663 0.585018,-1.39061 0.609102,-2.11111 l 0.02371,-5.9487 0.03198,-8.50287 c -0.01957,-0.72087 -0.211147,-1.4472 -0.594221,-2.11745 v -2.8e-4 c -0.382859,-0.66914 -0.91145,-1.20189 -1.5216213,-1.58398 l -11.43018,-6.6592 -1.006258,-0.58616 -0.04852,-0.0281 c -0.633505,-0.34331 -1.358041,-0.54079 -2.129653,-0.54343 z"
         id="path962"
         inkscape:connector-curvature="0"
         sodipodi:nodetypes="cccccccccccccccscccccccccccccccc" />
      <path
         sodipodi:nodetypes="cccccccccccccccscccccccccccccccc"
         inkscape:connector-curvature="0"
         id="path964"
         d="m 28.855089,215.11283 c -0.764461,0 -1.484266,0.19118 -2.115324,0.52715 l -0.04411,0.0256 -2.813174,1.60959 -9.665158,5.53514 -0.01351,0.008 c -0.615255,0.37756 -1.148295,0.90633 -1.53626,1.57374 -0.38872,0.6661 -0.586375,1.39125 -0.611583,2.11194 v 0.0937 l -0.05376,14.26215 v 0.0937 c 0.0188,0.7205 0.210584,1.44719 0.594221,2.11799 0.381569,0.66836 0.910728,1.202 1.521655,1.58257 l 12.484942,7.27542 c 0.634824,0.3433 1.358616,0.53995 2.129654,0.54259 h 0.0182 c 0.763706,0 1.482425,-0.19131 2.11367,-0.52578 l 0.967122,-0.55417 11.57074,-6.62364 0.0011,-0.001 c 0.614687,-0.37681 1.147452,-0.90616 1.535985,-1.57319 0.388152,-0.6663 0.58502,-1.39061 0.6091,-2.11111 l 0.0237,-5.9487 0.032,-8.50287 c -0.0196,-0.72087 -0.211145,-1.4472 -0.594219,-2.11745 v -2.8e-4 c -0.382859,-0.66914 -0.91145,-1.20189 -1.521621,-1.58398 l -11.43018,-6.6592 -1.006258,-0.58616 -0.04852,-0.0281 c -0.633505,-0.34331 -1.358041,-0.54079 -2.129653,-0.54343 z"
         style="fill:#00a7e6;fill-opacity:0.03921569;fill-rule:nonzero;stroke:#ffffff;stroke-width:0.26458332;stroke-miterlimit:4;stroke-dasharray:none;stroke-opacity:1" />
      <path
         sodipodi:nodetypes="cccccccccccccccscccccccccccccccc"
         inkscape:connector-curvature="0"
         id="path966"
         d="m 62.721761,215.11283 c -0.76446,0 -1.48427,0.19118 -2.11533,0.52715 l -0.0441,0.0256 -2.81317,1.60959 -9.665154,5.53514 -0.0135,0.008 c -0.615259,0.37756 -1.148299,0.90633 -1.536264,1.57374 -0.38872,0.6661 -0.586375,1.39125 -0.611583,2.11194 v 0.0937 l -0.05376,14.26215 v 0.0937 c 0.0188,0.7205 0.210584,1.44719 0.594221,2.11799 0.381569,0.66836 0.910728,1.202 1.521656,1.58257 l 12.484944,7.27542 c 0.63482,0.3433 1.35861,0.53995 2.12965,0.54259 h 0.0182 c 0.76371,0 1.48243,-0.19131 2.11367,-0.52578 l 0.96713,-0.55417 11.57074,-6.62364 0.001,-0.001 c 0.61469,-0.37681 1.14745,-0.90616 1.53599,-1.57319 0.38815,-0.6663 0.58502,-1.39061 0.6091,-2.11111 l 0.0237,-5.9487 0.032,-8.50287 c -0.0196,-0.72087 -0.21115,-1.4472 -0.59422,-2.11745 v -2.8e-4 c -0.38286,-0.66914 -0.91145,-1.20189 -1.52162,-1.58398 l -11.43019,-6.6592 -1.00626,-0.58616 -0.0485,-0.0281 c -0.6335,-0.34331 -1.35804,-0.54079 -2.12965,-0.54343 z"
         style="fill:#0099e5;fill-opacity:0.03921569;fill-rule:nonzero;stroke:#ffffff;stroke-width:0.26458332;stroke-miterlimit:4;stroke-dasharray:none;stroke-opacity:1" />
      <path
         style="fill:#00a1e4;fill-opacity:0.07450981;fill-rule:nonzero;stroke:#ffffff;stroke-width:0.26458332;stroke-miterlimit:4;stroke-dasharray:none;stroke-opacity:1"
         d="m 96.588451,215.11283 c -0.76447,0 -1.48427,0.19118 -2.11533,0.52715 l -0.0441,0.0256 -2.81318,1.60959 -9.66516,5.53514 -0.0135,0.008 c -0.61525,0.37756 -1.14829,0.90633 -1.53626,1.57374 -0.38872,0.6661 -0.58637,1.39125 -0.61158,2.11194 v 0.0937 l -0.0538,14.26215 v 0.0937 c 0.0188,0.7205 0.21058,1.44719 0.59422,2.11799 0.38157,0.66836 0.91073,1.202 1.52165,1.58257 l 12.48495,7.27542 c 0.63483,0.3433 1.35862,0.53995 2.12966,0.54259 h 0.0182 c 0.7637,0 1.48242,-0.19131 2.11367,-0.52578 l 0.96712,-0.55417 11.570749,-6.62364 10e-4,-0.001 c 0.61469,-0.37681 1.14745,-0.90616 1.53598,-1.57319 0.38816,-0.6663 0.58502,-1.39061 0.6091,-2.11111 l 0.0237,-5.9487 0.032,-8.50287 c -0.0196,-0.72087 -0.21114,-1.4472 -0.59421,-2.11745 v -2.8e-4 c -0.38286,-0.66914 -0.91145,-1.20189 -1.52163,-1.58398 l -11.430179,-6.6592 -1.00626,-0.58616 -0.0485,-0.0281 c -0.63351,-0.34331 -1.35804,-0.54079 -2.12966,-0.54343 z"
         id="path968"
         inkscape:connector-curvature="0"
         sodipodi:nodetypes="cccccccccccccccscccccccccccccccc" />
      <path
         style="fill:#0099e5;fill-opacity:0.03921569;fill-rule:nonzero;stroke:#ffffff;stroke-width:0.26458332;stroke-miterlimit:4;stroke-dasharray:none;stroke-opacity:1"
         d="m 164.32179,215.11283 c -0.76446,0 -1.48427,0.19118 -2.11533,0.52715 l -0.0441,0.0256 -2.81317,1.60959 -9.66517,5.53514 -0.0135,0.008 c -0.61525,0.37756 -1.14829,0.90633 -1.53626,1.57374 -0.38872,0.6661 -0.58637,1.39125 -0.61158,2.11194 v 0.0937 l -0.0538,14.26215 v 0.0937 c 0.0188,0.7205 0.21058,1.44719 0.59422,2.11799 0.38157,0.66836 0.91073,1.202 1.52165,1.58257 l 12.48496,7.27542 c 0.63482,0.3433 1.35861,0.53995 2.12965,0.54259 h 0.0182 c 0.76371,0 1.48242,-0.19131 2.11367,-0.52578 l 0.96712,-0.55417 11.57075,-6.62364 0.001,-0.001 c 0.61469,-0.37681 1.14745,-0.90616 1.53599,-1.57319 0.38815,-0.6663 0.58502,-1.39061 0.6091,-2.11111 l 0.0237,-5.9487 0.032,-8.50287 c -0.0196,-0.72087 -0.21115,-1.4472 -0.59422,-2.11745 v -2.8e-4 c -0.38286,-0.66914 -0.91145,-1.20189 -1.52162,-1.58398 l -11.43019,-6.6592 -1.00626,-0.58616 -0.0485,-0.0281 c -0.63351,-0.34331 -1.35804,-0.54079 -2.12965,-0.54343 z"
         id="path972"
         inkscape:connector-curvature="0"
         sodipodi:nodetypes="cccccccccccccccscccccccccccccccc" />
      <path
         style="fill:#00a7e6;fill-opacity:0.10606061;fill-rule:nonzero;stroke:#ffffff;stroke-width:0.26458332;stroke-miterlimit:4;stroke-dasharray:none;stroke-opacity:1"
         d="m 198.18848,215.11283 c -0.76446,0 -1.48427,0.19118 -2.11533,0.52715 l -0.0441,0.0256 -2.81317,1.60959 -9.66516,5.53514 -0.0135,0.008 c -0.61526,0.37756 -1.14831,0.90633 -1.53627,1.57374 -0.38872,0.6661 -0.58638,1.39125 -0.61158,2.11194 v 0.0937 l -0.0538,14.26215 v 0.0937 c 0.0188,0.7205 0.21058,1.44719 0.59422,2.11799 0.38157,0.66836 0.91073,1.202 1.52166,1.58257 l 12.48495,7.27542 c 0.63482,0.3433 1.35861,0.53995 2.12965,0.54259 h 0.0182 c 0.76371,0 1.48243,-0.19131 2.11367,-0.52578 l 0.96713,-0.55417 11.57075,-6.62364 10e-4,-0.001 c 0.61469,-0.37681 1.14745,-0.90616 1.53599,-1.57319 0.38815,-0.6663 0.58502,-1.39061 0.6091,-2.11111 l 0.0237,-5.9487 0.032,-8.50287 c -0.0196,-0.72087 -0.21115,-1.4472 -0.59422,-2.11745 v -2.8e-4 c -0.38286,-0.66914 -0.91145,-1.20189 -1.52162,-1.58398 l -11.4302,-6.6592 -1.00626,-0.58616 -0.0485,-0.0281 c -0.6335,-0.34331 -1.35804,-0.54079 -2.12965,-0.54343 z"
         id="path974"
         inkscape:connector-curvature="0"
         sodipodi:nodetypes="cccccccccccccccscccccccccccccccc" />
      <path
         sodipodi:nodetypes="cccccccccccccccscccccccccccccccc"
         inkscape:connector-curvature="0"
         id="path976"
         d="m 232.05519,215.11283 c -0.76447,0 -1.48427,0.19118 -2.11534,0.52715 l -0.0441,0.0256 -2.81318,1.60959 -9.66516,5.53514 -0.0135,0.008 c -0.61525,0.37756 -1.14829,0.90633 -1.53626,1.57374 -0.38872,0.6661 -0.58637,1.39125 -0.61158,2.11194 v 0.0937 l -0.0538,14.26215 v 0.0937 c 0.0188,0.7205 0.21058,1.44719 0.59422,2.11799 0.38157,0.66836 0.91073,1.202 1.52165,1.58257 l 12.48495,7.27542 c 0.63484,0.3433 1.35863,0.53995 2.12967,0.54259 h 0.0182 c 0.7637,0 1.48242,-0.19131 2.11367,-0.52578 l 0.96712,-0.55417 11.57075,-6.62364 0.001,-0.001 c 0.61469,-0.37681 1.14745,-0.90616 1.53598,-1.57319 0.38816,-0.6663 0.58502,-1.39061 0.6091,-2.11111 l 0.0237,-5.9487 0.032,-8.50287 c -0.0196,-0.72087 -0.21114,-1.4472 -0.59421,-2.11745 v -2.8e-4 c -0.38286,-0.66914 -0.91145,-1.20189 -1.52163,-1.58398 l -11.43018,-6.6592 -1.00626,-0.58616 -0.0485,-0.0281 c -0.63351,-0.34331 -1.35804,-0.54079 -2.12966,-0.54343 z"
         style="fill:#0099e5;fill-opacity:0.03921569;fill-rule:nonzero;stroke:#ffffff;stroke-width:0.26458332;stroke-miterlimit:4;stroke-dasharray:none;stroke-opacity:1" />
      <path
         sodipodi:nodetypes="cccccccccccccccscccccccccccccccc"
         inkscape:connector-curvature="0"
         id="path978"
         d="m 265.92186,215.11283 c -0.76446,0 -1.48427,0.19118 -2.11533,0.52715 l -0.0441,0.0256 -2.81317,1.60959 -9.66517,5.53514 -0.0135,0.008 c -0.61525,0.37756 -1.14829,0.90633 -1.53626,1.57374 -0.38872,0.6661 -0.58637,1.39125 -0.61158,2.11194 v 0.0937 l -0.0538,14.26215 v 0.0937 c 0.0188,0.7205 0.21058,1.44719 0.59422,2.11799 0.38157,0.66836 0.91073,1.202 1.52165,1.58257 l 12.48496,7.27542 c 0.63482,0.3433 1.35861,0.53995 2.12965,0.54259 h 0.0182 c 0.76371,0 1.48242,-0.19131 2.11367,-0.52578 l 0.96712,-0.55417 11.57075,-6.62364 10e-4,-0.001 c 0.61469,-0.37681 1.14745,-0.90616 1.53599,-1.57319 0.38815,-0.6663 0.58502,-1.39061 0.6091,-2.11111 l 0.0237,-5.9487 0.032,-8.50287 c -0.0196,-0.72087 -0.21115,-1.4472 -0.59422,-2.11745 v -2.8e-4 c -0.38286,-0.66914 -0.91145,-1.20189 -1.52162,-1.58398 l -11.43019,-6.6592 -1.00626,-0.58616 -0.0485,-0.0281 c -0.63351,-0.34331 -1.35804,-0.54079 -2.12965,-0.54343 z"
         style="fill:#00a1e4;fill-opacity:0.07450981;fill-rule:nonzero;stroke:#ffffff;stroke-width:0.26458332;stroke-miterlimit:4;stroke-dasharray:none;stroke-opacity:1" />
      <path
         sodipodi:nodetypes="cccccccccccccccscccccccccccccccc"
         inkscape:connector-curvature="0"
         id="path980"
         d="m 299.78855,215.11283 c -0.76446,0 -1.48427,0.19118 -2.11533,0.52715 l -0.0441,0.0256 -2.81317,1.60959 -9.66516,5.53514 -0.0135,0.008 c -0.61526,0.37756 -1.14831,0.90633 -1.53627,1.57374 -0.38872,0.6661 -0.58638,1.39125 -0.61158,2.11194 v 0.0937 l -0.0538,14.26215 v 0.0937 c 0.0188,0.7205 0.21058,1.44719 0.59422,2.11799 0.38157,0.66836 0.91073,1.202 1.52166,1.58257 l 12.48495,7.27542 c 0.63482,0.3433 1.35861,0.53995 2.12965,0.54259 h 0.0182 c 0.76371,0 1.48243,-0.19131 2.11367,-0.52578 l 0.96713,-0.55417 11.57075,-6.62364 10e-4,-0.001 c 0.61469,-0.37681 1.14745,-0.90616 1.53599,-1.57319 0.38815,-0.6663 0.58502,-1.39061 0.6091,-2.11111 l 0.0237,-5.9487 0.032,-8.50287 c -0.0196,-0.72087 -0.21115,-1.4472 -0.59422,-2.11745 v -2.8e-4 c -0.38286,-0.66914 -0.91145,-1.20189 -1.52162,-1.58398 l -11.4302,-6.6592 -1.00626,-0.58616 -0.0485,-0.0281 c -0.6335,-0.34331 -1.35804,-0.54079 -2.12965,-0.54343 z"
         style="fill:#00a1e3;fill-opacity:0.10588235;fill-rule:nonzero;stroke:#ffffff;stroke-width:0.26458332;stroke-miterlimit:4;stroke-dasharray:none;stroke-opacity:1" />
      <path
         style="fill:#0099e5;fill-opacity:0.03921569;fill-rule:nonzero;stroke:#ffffff;stroke-width:0.26458332;stroke-miterlimit:4;stroke-dasharray:none;stroke-opacity:1"
         d="m 333.65526,215.11283 c -0.76447,0 -1.48427,0.19118 -2.11534,0.52715 l -0.0441,0.0256 -2.81318,1.60959 -9.66516,5.53514 -0.0135,0.008 c -0.61525,0.37756 -1.14829,0.90633 -1.53626,1.57374 -0.38872,0.6661 -0.58637,1.39125 -0.61158,2.11194 v 0.0937 l -0.0538,14.26215 v 0.0937 c 0.0188,0.7205 0.21058,1.44719 0.59422,2.11799 0.38157,0.66836 0.91073,1.202 1.52165,1.58257 l 12.48495,7.27542 c 0.63484,0.3433 1.35863,0.53995 2.12967,0.54259 h 0.0182 c 0.7637,0 1.48242,-0.19131 2.11367,-0.52578 l 0.96712,-0.55417 11.57075,-6.62364 0.001,-0.001 c 0.61469,-0.37681 1.14745,-0.90616 1.53598,-1.57319 0.38816,-0.6663 0.58502,-1.39061 0.6091,-2.11111 l 0.0237,-5.9487 0.032,-8.50287 c -0.0196,-0.72087 -0.21114,-1.4472 -0.59421,-2.11745 v -2.8e-4 c -0.38286,-0.66914 -0.91145,-1.20189 -1.52163,-1.58398 l -11.43018,-6.6592 -1.00626,-0.58616 -0.0485,-0.0281 c -0.63351,-0.34331 -1.35804,-0.54079 -2.12966,-0.54343 z"
         id="path982"
         inkscape:connector-curvature="0"
         sodipodi:nodetypes="cccccccccccccccscccccccccccccccc" />
      <path
         style="fill:#00a1e4;fill-opacity:0.07450981;fill-rule:nonzero;stroke:#ffffff;stroke-width:0.26458332;stroke-miterlimit:4;stroke-dasharray:none;stroke-opacity:1"
         d="m 45.788424,186.00866 c -0.764461,0 -1.484266,0.19118 -2.115324,0.52715 l -0.04411,0.0256 -2.813174,1.60959 -9.665158,5.53514 -0.01351,0.008 c -0.615255,0.37756 -1.148295,0.90633 -1.53626,1.57374 -0.38872,0.6661 -0.586375,1.39125 -0.611583,2.11194 v 0.0937 l -0.05376,14.26215 v 0.0937 c 0.0188,0.7205 0.210584,1.44719 0.594221,2.11799 0.381569,0.66836 0.910728,1.202 1.521655,1.58257 l 12.484942,7.27542 c 0.634824,0.3433 1.358616,0.53995 2.129654,0.54259 h 0.0182 c 0.763706,0 1.482425,-0.19131 2.11367,-0.52578 l 0.967122,-0.55417 11.57074,-6.62364 0.0011,-0.001 c 0.614687,-0.37681 1.147452,-0.90616 1.535985,-1.57319 0.388152,-0.6663 0.58502,-1.39061 0.6091,-2.11111 l 0.0237,-5.9487 0.032,-8.50287 c -0.0196,-0.72087 -0.211145,-1.4472 -0.594219,-2.11745 v -2.8e-4 c -0.382859,-0.66914 -0.91145,-1.20189 -1.521621,-1.58398 l -11.43018,-6.6592 -1.006258,-0.58616 -0.04852,-0.0281 c -0.633505,-0.34331 -1.358041,-0.54079 -2.129653,-0.54343 z"
         id="path986"
         inkscape:connector-curvature="0"
         sodipodi:nodetypes="cccccccccccccccscccccccccccccccc" />
      <path
         sodipodi:nodetypes="cccccccccccccccscccccccccccccccc"
         inkscape:connector-curvature="0"
         id="path990"
         d="m 113.5218,186.00866 c -0.76447,0 -1.48427,0.19118 -2.11534,0.52715 l -0.0441,0.0256 -2.81318,1.60959 -9.665164,5.53514 -0.0135,0.008 c -0.61525,0.37756 -1.14829,0.90633 -1.53626,1.57374 -0.38872,0.6661 -0.58637,1.39125 -0.61158,2.11194 v 0.0937 l -0.0538,14.26215 v 0.0937 c 0.0188,0.7205 0.21058,1.44719 0.59422,2.11799 0.38157,0.66836 0.91073,1.202 1.52165,1.58257 l 12.484954,7.27542 c 0.63484,0.3433 1.35863,0.53995 2.12967,0.54259 h 0.0182 c 0.7637,0 1.48242,-0.19131 2.11367,-0.52578 l 0.96712,-0.55417 11.57075,-6.62364 0.001,-0.001 c 0.61469,-0.37681 1.14745,-0.90616 1.53598,-1.57319 0.38816,-0.6663 0.58502,-1.39061 0.6091,-2.11111 l 0.0237,-5.9487 0.032,-8.50287 c -0.0196,-0.72087 -0.21114,-1.4472 -0.59421,-2.11745 v -2.8e-4 c -0.38286,-0.66914 -0.91145,-1.20189 -1.52163,-1.58398 l -11.43018,-6.6592 -1.00626,-0.58616 -0.0485,-0.0281 c -0.63351,-0.34331 -1.35804,-0.54079 -2.12966,-0.54343 z"
         style="fill:#0099e5;fill-opacity:0.03921569;fill-rule:nonzero;stroke:#ffffff;stroke-width:0.26458332;stroke-miterlimit:4;stroke-dasharray:none;stroke-opacity:1" />
      <path
         style="fill:#0099e5;fill-opacity:0.03921569;fill-rule:nonzero;stroke:#ffffff;stroke-width:0.26458332;stroke-miterlimit:4;stroke-dasharray:none;stroke-opacity:1"
         d="m 248.98854,186.00866 c -0.76447,0 -1.48427,0.19118 -2.11534,0.52715 l -0.0441,0.0256 -2.81318,1.60959 -9.66516,5.53514 -0.0135,0.008 c -0.61525,0.37756 -1.14829,0.90633 -1.53626,1.57374 -0.38872,0.6661 -0.58637,1.39125 -0.61158,2.11194 v 0.0937 l -0.0538,14.26215 v 0.0937 c 0.0188,0.7205 0.21058,1.44719 0.59422,2.11799 0.38157,0.66836 0.91073,1.202 1.52165,1.58257 l 12.48495,7.27542 c 0.63484,0.3433 1.35863,0.53995 2.12967,0.54259 h 0.0182 c 0.7637,0 1.48242,-0.19131 2.11367,-0.52578 l 0.96712,-0.55417 11.57075,-6.62364 0.001,-0.001 c 0.61469,-0.37681 1.14745,-0.90616 1.53598,-1.57319 0.38816,-0.6663 0.58502,-1.39061 0.6091,-2.11111 l 0.0237,-5.9487 0.032,-8.50287 c -0.0196,-0.72087 -0.21114,-1.4472 -0.59421,-2.11745 v -2.8e-4 c -0.38286,-0.66914 -0.91145,-1.20189 -1.52163,-1.58398 l -11.43018,-6.6592 -1.00626,-0.58616 -0.0485,-0.0281 c -0.63351,-0.34331 -1.35804,-0.54079 -2.12966,-0.54343 z"
         id="path998"
         inkscape:connector-curvature="0"
         sodipodi:nodetypes="cccccccccccccccscccccccccccccccc" />
      <path
         style="fill:#00a1e4;fill-opacity:0.07450981;fill-rule:nonzero;stroke:#ffffff;stroke-width:0.26458332;stroke-miterlimit:4;stroke-dasharray:none;stroke-opacity:1"
         d="m 282.85521,186.00866 c -0.76446,0 -1.48427,0.19118 -2.11533,0.52715 l -0.0441,0.0256 -2.81317,1.60959 -9.66517,5.53514 -0.0135,0.008 c -0.61525,0.37756 -1.14829,0.90633 -1.53626,1.57374 -0.38872,0.6661 -0.58637,1.39125 -0.61158,2.11194 v 0.0937 l -0.0538,14.26215 v 0.0937 c 0.0188,0.7205 0.21058,1.44719 0.59422,2.11799 0.38157,0.66836 0.91073,1.202 1.52165,1.58257 l 12.48496,7.27542 c 0.63482,0.3433 1.35861,0.53995 2.12965,0.54259 h 0.0182 c 0.76371,0 1.48242,-0.19131 2.11367,-0.52578 l 0.96712,-0.55417 11.57075,-6.62364 0.001,-0.001 c 0.61469,-0.37681 1.14745,-0.90616 1.53599,-1.57319 0.38815,-0.6663 0.58502,-1.39061 0.6091,-2.11111 l 0.0237,-5.9487 0.032,-8.50287 c -0.0196,-0.72087 -0.21115,-1.4472 -0.59422,-2.11745 v -2.8e-4 c -0.38286,-0.66914 -0.91145,-1.20189 -1.52162,-1.58398 l -11.43019,-6.6592 -1.00626,-0.58616 -0.0485,-0.0281 c -0.63351,-0.34331 -1.35804,-0.54079 -2.12965,-0.54343 z"
         id="path1000"
         inkscape:connector-curvature="0"
         sodipodi:nodetypes="cccccccccccccccscccccccccccccccc" />
    </g>
  </g>
</svg>
