<?xml version="1.0" encoding="UTF-8" standalone="no"?>
<!-- Created with Inkscape (http://www.inkscape.org/) -->

<svg
   width="256"
   height="255.99998"
   viewBox="0 0 67.733336 67.73333"
   version="1.1"
   id="svg5212"
   xmlns="http://www.w3.org/2000/svg"
   xmlns:svg="http://www.w3.org/2000/svg"
   xmlns:rdf="http://www.w3.org/1999/02/22-rdf-syntax-ns#"
   xmlns:cc="http://creativecommons.org/ns#"
   xmlns:dc="http://purl.org/dc/elements/1.1/">
  <defs
     id="defs5206" />
  <metadata
     id="metadata5209">
    <rdf:RDF>
      <cc:Work
         rdf:about="">
        <dc:format>image/svg+xml</dc:format>
        <dc:type
           rdf:resource="http://purl.org/dc/dcmitype/StillImage" />
      </cc:Work>
    </rdf:RDF>
  </metadata>
  <g
     id="layer1"
     transform="translate(8.3054353,-62.438567)">
    <path
       id="path847"
       style="fill:#4f5b93;fill-opacity:1;fill-rule:nonzero;stroke:none;stroke-width:0.341244"
       d="M 25.655282 62.438567 C 24.268808 62.438567 22.963355 62.785461 21.818824 63.394581 L 21.738726 63.44109 L 16.636712 66.359258 L -0.89296785 76.394304 L -0.91725578 76.408257 C -2.0331237 77.092793 -3.0000039 78.051778 -3.703649 79.26183 C -4.4086593 80.469493 -4.7668984 81.783911 -4.8126252 83.090536 L -4.8126252 83.260552 L -4.9102937 109.11841 L -4.9102937 109.28842 C -4.8761687 110.59471 -4.5281195 111.91231 -3.8323233 113.1285 C -3.1402804 114.34026 -2.1808211 115.30758 -1.0728018 115.99757 L 21.570777 129.18798 C 22.722136 129.81041 24.034656 130.16712 25.433074 130.1719 L 25.466147 130.1719 C 26.851257 130.1719 28.154632 129.82487 29.299504 129.21847 L 31.053919 128.21388 L 52.039202 116.20531 L 52.041269 116.20324 C 53.156113 115.52007 54.122477 114.56006 54.827145 113.3507 C 55.531132 112.14269 55.888309 110.82984 55.931987 109.52355 L 55.974879 98.73816 L 56.032756 83.322047 C 55.997266 82.015084 55.649559 80.698177 54.954786 79.483005 L 54.954786 79.482488 C 54.260408 78.269313 53.301919 77.303553 52.195265 76.610829 L 31.464747 64.537664 L 29.639535 63.474679 L 29.551685 63.424037 C 28.402717 62.801608 27.088831 62.443343 25.689389 62.438567 L 25.655282 62.438567 z " />
    <path
       id="path4"
       style="-inkscape-font-specification:'Ubuntu Mono Bold Italic';fill:#ffffff;stroke-width:2.22158"
       d="m 20.546476,83.491966 c -2.351457,10e-7 -4.402157,0.510934 -6.15208,1.532723 -1.749922,0.99559 -3.21315,2.30561 -4.388879,3.929993 -1.1483855,1.598183 -2.0231093,3.406063 -2.6246452,5.423442 -0.5741933,1.991179 -0.8614461,3.969024 -0.8614461,5.934006 0,2.72477 0.6289504,4.83387 1.8867061,6.32726 1.2577563,1.49339 3.1580872,2.24018 5.7009432,2.24018 1.585867,0 3.035097,-0.13127 4.347539,-0.39326 1.339784,-0.262 2.323913,-0.49734 2.952791,-0.70694 l 3.034957,-12.143959 h -5.044653 l -2.214336,8.882149 c -0.300768,0.0524 -0.628983,0.0916 -0.984436,0.11782 -0.328111,0.0262 -0.669807,0.0393 -1.02526,0.0393 -1.312441,0 -2.242126,-0.44556 -2.788977,-1.33635 -0.546851,-0.91699 -0.820622,-2.08267 -0.820622,-3.497459 0,-1.362384 0.177848,-2.75137 0.533301,-4.166156 0.355453,-1.440985 0.88848,-2.751005 1.599386,-3.929992 0.710905,-1.178988 1.586145,-2.148041 2.625162,-2.907833 1.066359,-0.759791 2.291611,-1.16117 3.68608,-1.16117 h 2.812232 3.590995 6.68538 l -5.085478,21.20388 h 5.044654 l 5.085477,-21.20388 h 6.726205 l 0.984436,-4.183754 H 33.096614 27.39567 22.820239 Z" />
    <path
       style="fill:#ff2560;fill-opacity:0.433295;stroke:#ffffc6;stroke-width:0.003;stroke-dasharray:none;stroke-opacity:1"
       d="M 24.554163,83.730865 H 18.671888"
       id="path5" />
    <path
       style="fill:#ff2560;fill-opacity:0.433295;stroke:#0a1cc6;stroke-width:0.003;stroke-dasharray:none;stroke-opacity:1"
       d="M 24.554163,87.914276 H 19.277377"
       id="path6" />
  </g>
</svg>
